<?xml version="1.0" encoding="UTF-8"?>
<!-- Created with Inkscape (http://www.inkscape.org/) -->
<svg width="16" height="16" version="1.1" viewBox="0 0 16 16" xmlns="http://www.w3.org/2000/svg" xmlns:xlink="http://www.w3.org/1999/xlink">
 <g transform="matrix(.15138 0 0 .15138 .76563 .76564)" stroke="#fff">
  <g transform="matrix(.94092 0 0 .94092 2.8233 -177.05)" stroke="#fff" stroke-width="7.0205">
   <path d="m97.139 238.95v0c0 27.256-22.095 49.351-49.351 49.351-27.256 0-49.351-22.095-49.351-49.351-3e-6 -27.256 22.095-49.351 49.351-49.351 27.142 0 49.351 22.23 49.351 49.351z" fill="none" stroke="#fff" stroke-linecap="round" stroke-linejoin="round" stroke-width="7.0205" style="paint-order:markers fill stroke"/>
  </g>
  <g fill="none" stroke-dashoffset="3.3028" stroke-linecap="round" stroke-linejoin="round" stroke-width="6.6057">
   <path d="m36.981 21.365h-15.616v15.616"/>
   <g stroke="#fff">
    <path d="m58.595 74.211h15.616v-15.616"/>
    <path d="m36.981 74.211h-15.616v-15.616"/>
    <path d="m58.595 21.365h15.616v15.616"/>
   </g>
  </g>
  <rect transform="scale(-1,1)" x="-62.521" y="33.055" width="29.466" height="29.466" fill="#fff" stroke-linejoin="round" stroke-width="6.6057"/>
 </g>
</svg>
