<?xml version="1.0" encoding="UTF-8"?>
<!-- Created with Inkscape (http://www.inkscape.org/) -->
<svg width="16" height="16" version="1.1" viewBox="0 0 16 16" xmlns="http://www.w3.org/2000/svg">
 <g transform="matrix(.14193 0 0 .14193 1.1906 1.1931)" stroke="#fff">
  <g transform="matrix(1.0036 0 0 1.0036 .01775 -191.85)" stroke="#fff" stroke-width="7.0205">
   <path d="m97.139 238.95v0c0 27.256-22.095 49.351-49.351 49.351s-49.351-22.095-49.351-49.351c-3e-6 -27.256 22.095-49.351 49.351-49.351 27.142 0 49.351 22.23 49.351 49.351z" fill="none" stroke="#fff" stroke-linecap="round" stroke-linejoin="round" stroke-width="7.0205" style="paint-order:markers fill stroke"/>
  </g>
  <g fill="none" stroke-linejoin="round" stroke-width="7.0458">
   <path d="m36.981 21.365h-15.616v15.616" stroke-dashoffset="3.3028" stroke-linecap="round"/>
   <g stroke="#fff" stroke-dashoffset="3.3028" stroke-linecap="round">
    <path d="m58.595 74.211h15.616v-15.616"/>
    <path d="m36.981 74.211h-15.616v-15.616"/>
    <path d="m58.595 21.365h15.616v15.616"/>
   </g>
   <rect transform="scale(-1,1)" x="-62.521" y="33.055" width="29.466" height="29.466"/>
  </g>
 </g>
</svg>
